<svg width="36" height="36" viewBox="0 0 36 36" fill="none" xmlns="http://www.w3.org/2000/svg">
<path d="M32.7 35.225L20.65 23.175C19.65 24.0417 18.4833 24.7167 17.15 25.2C15.8167 25.6833 14.4 25.925 12.9 25.925C9.3 25.925 6.25 24.675 3.75 22.175C1.25 19.675 0 16.6583 0 13.125C0 9.59166 1.25 6.575 3.75 4.075C6.25 1.575 9.28333 0.324997 12.85 0.324997C16.3833 0.324997 19.3917 1.575 21.875 4.075C24.3583 6.575 25.6 9.59166 25.6 13.125C25.6 14.5583 25.3667 15.9417 24.9 17.275C24.4333 18.6083 23.7333 19.8583 22.8 21.025L34.95 33.075C35.25 33.3417 35.4 33.6833 35.4 34.1C35.4 34.5167 35.2333 34.8917 34.9 35.225C34.6 35.525 34.2333 35.675 33.8 35.675C33.3667 35.675 33 35.525 32.7 35.225ZM12.85 22.925C15.55 22.925 17.85 21.9667 19.75 20.05C21.65 18.1333 22.6 15.825 22.6 13.125C22.6 10.425 21.65 8.11666 19.75 6.2C17.85 4.28333 15.55 3.325 12.85 3.325C10.1167 3.325 7.79167 4.28333 5.875 6.2C3.95833 8.11666 3 10.425 3 13.125C3 15.825 3.95833 18.1333 5.875 20.05C7.79167 21.9667 10.1167 22.925 12.85 22.925Z" fill="#1D1D1D"/>
</svg>
