<svg width="15" height="20" viewBox="0 0 15 20" fill="none" xmlns="http://www.w3.org/2000/svg">
<g filter="url(#filter0_d_1112_412)">
<path d="M9.4748 14.45L4.5248 9.5C4.44147 9.41667 4.38314 9.33333 4.3498 9.25C4.31647 9.16667 4.2998 9.075 4.2998 8.975C4.2998 8.875 4.31647 8.78333 4.3498 8.7C4.38314 8.61667 4.44147 8.53333 4.5248 8.45L9.4998 3.475C9.6498 3.325 9.82897 3.25 10.0373 3.25C10.2456 3.25 10.4248 3.325 10.5748 3.475C10.7248 3.625 10.7956 3.80833 10.7873 4.025C10.779 4.24167 10.6998 4.425 10.5498 4.575L6.1498 8.975L10.5748 13.4C10.7248 13.55 10.7998 13.725 10.7998 13.925C10.7998 14.125 10.7248 14.3 10.5748 14.45C10.4248 14.6 10.2415 14.675 10.0248 14.675C9.80814 14.675 9.6248 14.6 9.4748 14.45Z" fill="white"/>
</g>
<defs>
<filter id="filter0_d_1112_412" x="0.299805" y="0.25" width="14.5" height="19.425" filterUnits="userSpaceOnUse" color-interpolation-filters="sRGB">
<feFlood flood-opacity="0" result="BackgroundImageFix"/>
<feColorMatrix in="SourceAlpha" type="matrix" values="0 0 0 0 0 0 0 0 0 0 0 0 0 0 0 0 0 0 127 0" result="hardAlpha"/>
<feMorphology radius="1" operator="dilate" in="SourceAlpha" result="effect1_dropShadow_1112_412"/>
<feOffset dy="1"/>
<feGaussianBlur stdDeviation="1.5"/>
<feComposite in2="hardAlpha" operator="out"/>
<feColorMatrix type="matrix" values="0 0 0 0 0 0 0 0 0 0 0 0 0 0 0 0 0 0 0.2 0"/>
<feBlend mode="normal" in2="BackgroundImageFix" result="effect1_dropShadow_1112_412"/>
<feBlend mode="normal" in="SourceGraphic" in2="effect1_dropShadow_1112_412" result="shape"/>
</filter>
</defs>
</svg>
